<svg width="74" height="56" viewBox="0 0 74 56" fill="none" xmlns="http://www.w3.org/2000/svg">
<path d="M41.4436 14.1184C52.7915 14.1184 59.2273 21.4411 60.1618 30.2804H60.4472C67.7485 30.2804 73.6687 36.0353 73.6687 43.1346C73.6687 50.234 67.7485 55.9888 60.4472 55.9888H22.4401C15.1388 55.9888 9.21856 50.234 9.21856 43.1346C9.21856 36.0353 15.1388 30.2804 22.4401 30.2804H22.7255C23.6692 21.3806 30.0958 14.1184 41.4436 14.1184ZM29.4375 0.161621C36.1403 0.161621 41.9869 4.0137 44.8733 9.67551C43.7354 9.53452 42.59 9.4646 41.4436 9.46616C30.4411 9.46616 22.4216 15.5467 19.5582 24.7535L19.2728 25.7491L19.061 26.6191L18.3014 26.7586C15.5214 27.3309 12.9247 28.5896 10.743 30.4226C8.56132 32.2555 6.86251 34.6057 5.7981 37.2635C3.605 35.9132 1.89521 33.8912 0.91727 31.4915C-0.0606673 29.0918 -0.255775 26.4394 0.360309 23.92C0.976393 21.4005 2.37156 19.1453 4.34299 17.4821C6.31442 15.819 8.75936 14.8346 11.3224 14.672L12.3444 14.6488C13.0543 10.5889 15.1567 6.91146 18.2825 4.26217C21.4084 1.61288 25.3578 0.161061 29.4375 0.161621Z" fill="#E4F1F9"/>
</svg>
